<svg id="Layer_1" data-name="Layer 1" xmlns="http://www.w3.org/2000/svg" viewBox="0 0 1024 1024"><defs><style>.cls-1{fill:#d9d9d9;}.cls-2{fill:#fff;}.cls-3{fill:#ececec;}.cls-4{fill:#e7b2c8;}.cls-5{fill:#846542;}.cls-6{fill:#97794d;}.cls-7{fill:#b59e7e;}.cls-8{fill:#876945;}.cls-9{fill:#dca5bf;}.cls-10{fill:#1d1e1c;}.cls-11{fill:#724712;}.cls-12{fill:#c6c6c5;}.cls-13,.cls-14{fill:none;stroke:#fff;stroke-linecap:round;stroke-linejoin:round;stroke-width:3px;}.cls-14{stroke-dasharray:30.93 30.93;}.cls-15{fill:#87683e;}</style></defs><path class="cls-1" d="M383.74,509.68q17-26.76,34-53.52L562.28,350.07q-5.46-21.15-11-42.29Q462.23,363,373.23,418.16,378.48,463.91,383.74,509.68Z"/><path class="cls-1" d="M551.3,307.78q5.49,21.15,11,42.29Q777.74,192,993.18,33.85,772.25,170.8,551.3,307.78Z"/><path class="cls-2" d="M993.17,33.84l-804,341.07,184.11,43.25"/><path class="cls-3" d="M551.3,307.78c0-.14-.07-.3-.11-.43L189.11,374.9l184.12,43.26L551.3,307.78"/><path class="cls-4" d="M552.52,482.31h43.42a5,5,0,0,1,5,5v1.51a.53.53,0,0,1-.53.53H549.7a1.56,1.56,0,0,1-1.56-1.56v-1.08A4.37,4.37,0,0,1,552.52,482.31Z" transform="translate(-96.8 146.09) rotate(-13.38)"/><path class="cls-5" d="M632.15,242.73c1.23,5.13-21.49,16.32-42.12,21.84a144.48,144.48,0,0,1-53.43,3.84,128.11,128.11,0,0,1-7.21-11.93c-2.66-5-3.47-7.31-5.94-11.75a94.65,94.65,0,0,0-8-12,408.22,408.22,0,0,0,69.29,7.57C613.18,241,631.11,238.4,632.15,242.73Z"/><path class="cls-4" d="M588.11,387.51c-3.53,4.28-7.18,8.46-10.86,12.62s-7.51,8.18-11.39,12.16S558,420.19,553.93,424s-8.27,7.51-12.57,11.1-8.75,7-13.31,10.35-9.3,6.43-14.19,9.35c-2.43,1.48-4.94,2.84-7.47,4.2l-3.85,1.92c-1.28.65-2.62,1.2-3.93,1.81a107.68,107.68,0,0,1-16.48,5.85,79.14,79.14,0,0,1-17.74,2.59,64.32,64.32,0,0,1-18.25-2.09,54.14,54.14,0,0,1-17.1-7.71,65.55,65.55,0,0,1-13.65-12.52,98.09,98.09,0,0,1-10-14.77c-2.86-5.11-5.38-10.31-7.67-15.52-4.56-10.45-8.32-21-12.18-31.3s-7.6-20.54-12-30.35a171.37,171.37,0,0,0-15.17-27.86,101,101,0,0,0-21-22.65A87.08,87.08,0,0,0,324.43,298a93.91,93.91,0,0,0-14.24-6.2,116.16,116.16,0,0,0-31-5.68,146.24,146.24,0,0,0-16.08.06c-5.38.28-10.77.83-16.15,1.57a269.52,269.52,0,0,0-32.09,6.71c-5.31,1.42-10.59,3-15.85,4.7s-10.49,3.46-15.73,5.29c4.88-2.64,9.87-5.07,14.9-7.44s10.17-4.5,15.35-6.56A228.54,228.54,0,0,1,245.6,280.4a165.16,165.16,0,0,1,33.75-4.28,128,128,0,0,1,17.25.87,108.79,108.79,0,0,1,17.13,3.38,101.58,101.58,0,0,1,31.7,15.28,110.51,110.51,0,0,1,24.72,25.07,178,178,0,0,1,17.08,30C392,361.08,395.94,371.6,399.8,382s7.49,20.74,11.68,30.61,8.92,19.3,15.09,27.14,13.92,13.72,23.22,16.44,19.53,2.88,29.62.77a120.86,120.86,0,0,0,29.64-10.89c4.8-2.42,9.5-5.09,14.13-7.93s9.18-5.82,13.66-9c2.26-1.53,4.45-3.17,6.68-4.76s4.4-3.27,6.57-4.95c4.38-3.32,8.65-6.79,12.93-10.27s8.45-7.08,12.63-10.7S584,391.18,588.11,387.51Z"/><path class="cls-6" d="M622.53,449c-12.6,22.87-83.5,38-119.14,5.12-33.78-31.16-25-92.21-24.47-95.31,1.73-10.78,10.45-54.7,9.89-74.7-.26-9.66-1.4-19.23-1.4-19.23-.73-6.2-1.64-11.55-2.48-15.8a20.64,20.64,0,0,1,12.19,2.35c11.37,6.58,13,25.34,13,25.32s-.37-1.82-2.49-9.37a339.66,339.66,0,0,1,7.91-102.82,30.67,30.67,0,0,0,.63,11.22A31.32,31.32,0,0,0,522.48,188c13.64,17,61.79,44.25,68.4,62.67,2.87,8,1.62,11.73,6.63,25.09A165.64,165.64,0,0,0,610.13,302a55.4,55.4,0,0,1,8.22,26.06,59.77,59.77,0,0,1-1.05,15.76c-5.79,35.19-8.69,52.78-1.47,66,4.37,8,9.44,9.81,10.87,18.72A34.86,34.86,0,0,1,622.53,449Z"/><path class="cls-7" d="M582.31,424.3c-28.95-30.07-27.15-69.26-26.66-76.72A35.14,35.14,0,0,1,566,321.42c7.34-8.09,20.6-26.3,39.17-53a323.16,323.16,0,0,1,25.42,86.19c8.38,57.19-3.73,85.13-7,92.17-.43.93-.81,1.7-1.05,2.2A94.85,94.85,0,0,1,582.31,424.3Z"/><ellipse class="cls-8" cx="446.57" cy="136.71" rx="50.99" ry="63.22" transform="translate(46.44 377.58) rotate(-48.07)"/><path class="cls-6" d="M590.56,162.88c-7.54,18.3-37.09,39.22-48,49.59-14.78,14-29.64,40.24-27.69,93.83l-28,3.45a187.57,187.57,0,0,0,.51-44.9,189.93,189.93,0,0,0-22.29-70.45,103.23,103.23,0,0,0-13.66-56.94c18.26-16.59,35.26-21.19,44.28-22.75,15.59-2.7,30.32-.28,36.55.75,16.93,2.78,25,7.64,42.12,7.35a89.77,89.77,0,0,0,18.73-2.31l2.86,3.57c.2,3.47.39,6.94.59,10.41A82.34,82.34,0,0,1,590.56,162.88Z"/><rect class="cls-9" x="586.02" y="119.84" width="10.74" height="8.23" rx="4.12" transform="translate(34.07 357.4) rotate(-34.57)"/><circle class="cls-10" cx="516.67" cy="141.55" r="5.45"/><circle class="cls-2" cx="520.48" cy="142.08" r="0.93"/><path class="cls-2" d="M543.05,148.49a59.22,59.22,0,0,0-8.45,6.87,51.36,51.36,0,0,0-6.8,8.36,50.44,50.44,0,0,0-4.85,9.62,57.41,57.41,0,0,0-2.81,10.52,37.17,37.17,0,0,1,1.69-10.9,40.7,40.7,0,0,1,4.7-10.07,43.87,43.87,0,0,1,3.35-4.45,41.65,41.65,0,0,1,3.92-3.94A37.59,37.59,0,0,1,543.05,148.49Z"/><path class="cls-2" d="M545.25,149.73a38.61,38.61,0,0,0-4.56,6,29.35,29.35,0,0,0-3,6.72,28.56,28.56,0,0,0-1.27,7.24,36.35,36.35,0,0,0,.47,7.48,22.26,22.26,0,0,1-.66-15.17,22.75,22.75,0,0,1,3.49-6.93A21.79,21.79,0,0,1,545.25,149.73Z"/><path class="cls-2" d="M548.25,150.6a27.4,27.4,0,0,0-2.94,6.84,22.13,22.13,0,0,0-.7,7.23,24,24,0,0,0,1.7,7.09,32,32,0,0,0,3.64,6.52,19.71,19.71,0,0,1-4.72-6,20,20,0,0,1-2.13-7.47,18.66,18.66,0,0,1,1.08-7.71A17.64,17.64,0,0,1,548.25,150.6Z"/><path class="cls-6" d="M436.19,105.5c-2.25-.23-39.37-3.25-56.38,24.1-9.28,14.91-7.38,30.51-6.65,35,3.62,22.44,21.6,38.51,39.87,44.76,28.82,9.87,53.32-6.41,56.06-8.3-.14-12.14.09-25.05.83-38.62.78-14.26,2-27.73,3.6-40.32C467.93,117.28,454.93,107.41,436.19,105.5Z"/><path class="cls-4" d="M463,139.25a49.88,49.88,0,0,0,0,41.09c-21.38,11.33-43.8,6.07-51.67-7-4.94-8.22-5.07-21.09,1.65-30,7.77-10.29,21.07-10.53,26.77-10.52A46.86,46.86,0,0,1,463,139.25Z"/><path class="cls-7" d="M523.19,247.54c-5.06-7.6-9.45-12.68-9.29-20.72,0-1.87.42-8.78,9-19.61a78.74,78.74,0,0,1,23.68-19.82c11.55-6.51,27.71-17.21,47.65-35.65-3.47,12.61-8.7,20.76-12.86,25.89-2.26,2.78-3.14,3.36-9.36,10.25-9.68,10.69-14.52,16-15.1,18.18-3.17,11.61,20.07,18.13,37.71,43.13,17.46,24.75,21,55.77,23.75,78.89.75,6.44,1.11,11.83,1.3,15.62l-64,3.88a157.13,157.13,0,0,0-2-19.95,159.76,159.76,0,0,0-6.75-26C539.09,278.58,534.17,264,523.19,247.54Z"/><path class="cls-11" d="M594,150.85a9,9,0,0,1-3.94,1.74,10.43,10.43,0,0,1-4.41-.14,10,10,0,0,1-3.94-2,8.66,8.66,0,0,1-2.58-3.45,24.47,24.47,0,0,0,3.38,2.28,15.22,15.22,0,0,0,3.59,1.41A19.17,19.17,0,0,0,594,150.85Z"/><path class="cls-2" d="M993.17,33.84,641.81,553.27,417.74,456.16"/><path class="cls-3" d="M641.81,553.27Q619.16,439.11,596.52,325L417.74,456.16l224.07,97.11"/><path class="cls-12" d="M383.75,509.68l75.82-35.39-41.84-18.13Z"/><path class="cls-6" d="M631.31,346.54c-2.06,5.16-38.32-3.62-68-15.39a300.17,300.17,0,0,1-69.49-39,110.89,110.89,0,0,1-.63-15.44A140.31,140.31,0,0,1,494,262.4,112.06,112.06,0,0,1,496,251c17.91,14.31,44.24,34.32,77.77,56.13C610.26,330.88,633,342.29,631.31,346.54Z"/><path class="cls-13" d="M370.2,539c-.94,4.24-2.14,9.14-3.69,14.53"/><path class="cls-14" d="M355.93,582.61a198.37,198.37,0,0,1-43.73,62.78C274.07,682,199.74,722.77,164,693.73c-26-21.08-32.32-76.9-6.44-99.91,21.13-18.78,60.35-14.73,82.78,3.17,44.09,35.18,38.31,135.8-6.44,196.58-34.18,46.41-69.08,39.72-128.91,96.68a366.05,366.05,0,0,0-59.2,73.35"/><path class="cls-13" d="M37.91,976.94c-2.62,4.67-5,9.09-7.09,13.22"/><path class="cls-12" d="M607.27,509.89c-1.8-.16-5,.84-6.73,1.19-1.56.31-3.76.75-5.63-.4-.82-.49-2.07-1.67-1.89-2.79s1.78-1.82,5-3.31l1.28-.58c1.7-.77,6-2.72,6.86-6.42a6.5,6.5,0,0,0-1.81-6.28,6.23,6.23,0,0,0-4.06-1.36,9.1,9.1,0,0,0-4,1.05,18.24,18.24,0,0,0-6.48,4.62,14.4,14.4,0,0,0-3.49,5.82,13,13,0,0,0-.33,6,11,11,0,0,0,2.3,5.15,11.15,11.15,0,0,0,3.63,2.83,14.46,14.46,0,0,0,5.13,1.53,16,16,0,0,0,9-1.95c2.68-1.29,3-2.17,3-2.62A2.49,2.49,0,0,0,608,510.1,1.78,1.78,0,0,0,607.27,509.89Zm-15.54-7.33c-.71-.84,1.45-4.46,4.5-6,.95-.49,2.82-1.24,3.37-.6s-.77,2.78-.87,2.93a7.38,7.38,0,0,1-2.4,2.16C595.38,501.64,592.37,503.3,591.73,502.56Z"/><rect class="cls-12" x="593.52" y="475.6" width="3.76" height="10.95" rx="1.85" transform="translate(-74.67 111.02) rotate(-10.03)"/><rect class="cls-12" x="602.14" y="475.9" width="3.76" height="10.95" rx="1.85" transform="translate(200.75 -177.37) rotate(19.97)"/><rect class="cls-12" x="585.98" y="478.76" width="3.76" height="10.95" rx="1.85" transform="translate(1349.44 476.95) rotate(139.97)"/><rect class="cls-12" x="581.23" y="485.32" width="3.76" height="10.95" rx="1.85" transform="translate(1256.74 134.25) rotate(112.02)"/><rect class="cls-12" x="608.85" y="480.44" width="3.76" height="10.95" rx="1.85" transform="translate(562.13 -293.03) rotate(47.92)"/><path class="cls-15" d="M489.6,392a2.13,2.13,0,0,1-1.14-.81h0a3.81,3.81,0,0,1-.61-2.25h0a5.74,5.74,0,0,1,.5-2.3h0a2.71,2.71,0,0,1,.79-1.06h0a.88.88,0,0,1,.21-.12h0a2.22,2.22,0,0,1,1.54-.24h0a2.44,2.44,0,0,1,.26.06h0l-.76-1.29h0c-.66-1.1-1.39-2.32-1.64-2.67h0l-.05-.06h0a3.5,3.5,0,0,1-.51-.51h0a.89.89,0,0,1-.17-.41h0a.54.54,0,0,1,.22-.48h0a1.07,1.07,0,0,1,1.49.24h0a1,1,0,0,1,.16.33h0v0h0a1.15,1.15,0,0,0,.08.15h0l.25.48h0c.22.39.51.9.85,1.46h0c.6,1,1.32,2.2,1.89,3.06h0a1.42,1.42,0,0,1,.38-.08h0a.72.72,0,0,1,.42.15h0a1.45,1.45,0,0,1,.21.22h0a.74.74,0,0,1,.14.43h0a.81.81,0,0,1-.12.36h0a4,4,0,0,1-.23.34h0a4.44,4.44,0,0,1,.47.54h0a1.51,1.51,0,0,1,.2.35h0a.67.67,0,0,1,.06.43h0a.5.5,0,0,1-.2.31h0l-.06,0h0a1.12,1.12,0,0,1-.54.16h0a.84.84,0,0,1-.46-.15h0l-.15-.12h0a8.13,8.13,0,0,1-.41.93h0a6,6,0,0,1-1.6,2.15h0l0,0h0a1.65,1.65,0,0,1-1.48.3Zm-.32-3.56a3.28,3.28,0,0,0,.35,2h0a.44.44,0,0,0,.29.21h0a.49.49,0,0,0,.43-.12h0a3.44,3.44,0,0,0,.89-1.29h0c.26-.54.51-1.16.75-1.74h0l-.33-.28h0a3.13,3.13,0,0,0-1-.57h0a.76.76,0,0,0-.56,0h0a.27.27,0,0,0-.1.06h0a2.64,2.64,0,0,0-.68,1.75Zm6.75-2.15a6.1,6.1,0,0,1-1.75-1.08h0a15.14,15.14,0,0,1-2.13-2.23h0a.39.39,0,0,1-.08-.1h0a.84.84,0,0,1-.18-.51h0a.57.57,0,0,1,.24-.45h0a.27.27,0,0,1,.1-.06h0a.83.83,0,0,1,.73,0h0a1.06,1.06,0,0,1,.36.31h0q.1.17.21.3h0a13.65,13.65,0,0,0,1.57,1.83h0a3.19,3.19,0,0,0,1.18.78h0a.4.4,0,0,0,.36,0h0a.45.45,0,0,0,.13-.16h0a1.54,1.54,0,0,0,.09-1h0a4.64,4.64,0,0,0-.4-1.17h0a10.1,10.1,0,0,0-1-1.58h0l0,0h0a.94.94,0,0,1-.19-.47h0a.7.7,0,0,1,.32-.63h0l0,0h0a.6.6,0,0,1,.46-.1h0a.85.85,0,0,1,.35.13h0a1.27,1.27,0,0,1,.3.26h0l0,0v0c.09.15.49.79.88,1.56h0a7.56,7.56,0,0,1,.85,2.57h0A1.85,1.85,0,0,1,498,386h0l-.2.17h0a1.88,1.88,0,0,1-1.81.15Zm5.68-2.39-.11.07h0a.83.83,0,0,1-.66.07h0a.69.69,0,0,1-.29-.18h0l-.07,0h0a.75.75,0,0,1-.55,0h0a.23.23,0,0,1-.07-.06h0l0,0h0l-.07-.08h0l-.19-.24h0l-.61-.82h0a27.56,27.56,0,0,1-1.56-2.36h0A.83.83,0,0,1,497,380h0l0-.05h0a.65.65,0,0,1-.11-.5h0a1.09,1.09,0,0,1,.08-.31h0a1.47,1.47,0,0,0-.06-.14h0c-.07-.17-.17-.4-.3-.66h0a11,11,0,0,0-.95-1.67h0a.35.35,0,0,0-.05-.08h0a2.66,2.66,0,0,0-.2-.18h0a2.09,2.09,0,0,1-.34-.33h0a.64.64,0,0,1-.14-.45h0a.71.71,0,0,1,.25-.48h0l.05,0h0a.61.61,0,0,1,.42-.1h0a1.19,1.19,0,0,1,.41.11h0a2.31,2.31,0,0,1,.77.66h0l.06.08h0a6.25,6.25,0,0,1,.59,1.06h0c.13.3.28.65.5,1.12h0a6.21,6.21,0,0,1,1.5-.78h0a2.8,2.8,0,0,1,2.26.11h0a1.2,1.2,0,0,1,.39.35h0a2.45,2.45,0,0,1,.38,1.23h0a8.26,8.26,0,0,1,0,1.48h0a22,22,0,0,1-.45,2.47h0c0,.13-.05.24-.05.25h0a.86.86,0,0,0,0,.22h0a.76.76,0,0,1,0,.3h0a.56.56,0,0,1-.18.22Zm-2.1-2.81a16.56,16.56,0,0,0,1.07,1.32h0c.05-.18.1-.39.16-.62h0a9.89,9.89,0,0,0,.32-2.16h0a1.76,1.76,0,0,0-.21-1h0a.31.31,0,0,0-.14-.12h0a1.17,1.17,0,0,0-.84,0h0a4.37,4.37,0,0,0-1.15.6h0l-.22.17h0c0,.09.1.21.17.34h0a12.13,12.13,0,0,0,.66,1.15h0l.18.25Zm6.52.08a1,1,0,0,1-.53.15h0a.59.59,0,0,1-.39-.15h0a2.64,2.64,0,0,1-.29-.29h0a10,10,0,0,1-.74-.93h0c-1.07-1.48-2.57-3.88-3.43-5.28h0c-.44-.71-.82-1.3-1.11-1.78h0a6.34,6.34,0,0,1-.58-1.06h0a.63.63,0,0,1,0-.29h0a.83.83,0,0,1,.29-.48h0a.92.92,0,0,1,.72-.11h0a.65.65,0,0,1,.31.13h0a1.2,1.2,0,0,1,.24.26h0a13.92,13.92,0,0,1,.73,1.26h0c.35.65.86,1.56,1.62,2.87h0a33.76,33.76,0,0,0,1.86,2.86h0c.39.54.77,1,1.09,1.39h0a1.81,1.81,0,0,1,.15.19h0a2.73,2.73,0,0,1,.23.38h0a.92.92,0,0,1,.09.51h0a.55.55,0,0,1-.22.36h0Zm1.31-2.19-.06-.31.06.32a2.17,2.17,0,0,1-1.25-.24h0a3.2,3.2,0,0,1-1.2-1h0a3.14,3.14,0,0,1-.52-1.14h0a7,7,0,0,1-.23-2.44h0a2.22,2.22,0,0,1,.67-1.44h0l.1-.08h0a2.19,2.19,0,0,1,1.37-.36h0a2.88,2.88,0,0,1,1.88.89h0a3.47,3.47,0,0,1,.4.46h0a3.74,3.74,0,0,1,.61,2.93h0A3.52,3.52,0,0,1,508,378.7h0a1.26,1.26,0,0,1-.6.27ZM506,373.78a.25.25,0,0,0-.07.09h0a1.94,1.94,0,0,0-.18.45h0a4,4,0,0,0,.21,2.19h0a1.28,1.28,0,0,0,.2.38h0a2,2,0,0,0,.57.52h0a.71.71,0,0,0,.53.11h0l.11-.06h0a1.76,1.76,0,0,0,.48-.85h0a2.58,2.58,0,0,0,.09-1h0a3.1,3.1,0,0,0-.48-1.29h0a1.86,1.86,0,0,0-.61-.53h0a1,1,0,0,0-.44-.17h0a.53.53,0,0,0-.28,0h0l-.11.11h0v0Zm-.12,0-.12-.22.12.22Zm-22.64,19a5.25,5.25,0,0,1,.12-1.47,6.15,6.15,0,0,1,1.4-2.51l.39-.24a1.91,1.91,0,0,1,1.11-.2q.56.06.87.81a2,2,0,0,1,0,1.61,4.63,4.63,0,0,1-1,1.52c-.46.44-.68.73-.65.87s.18.24.48.27a3.94,3.94,0,0,0,1.61-.5,7,7,0,0,0,1.78-1.11,7.6,7.6,0,0,0,.95-1c.23-.3.76-.22.9-.36s.33-.12.55.05c-.07.6-.58.79-.83,1.19a7.07,7.07,0,0,1-1.06,1.28,9.25,9.25,0,0,1-1.83,1.36l-.47.26a6.94,6.94,0,0,1-1.92.58,2.42,2.42,0,0,1-1-.15,2.35,2.35,0,0,1-.83-.71A3.94,3.94,0,0,1,483.22,392.75Zm1.44-.46a5.06,5.06,0,0,0,1.08-1.43.77.77,0,0,0,0-.75c-.13-.15-.32,0-.59.34a2.31,2.31,0,0,0-.43,1A6,6,0,0,0,484.66,392.29Z"/><path class="cls-15" d="M511.75,382.59a6.41,6.41,0,0,1-3.58.63h0a.57.57,0,0,1-.37-.2h0l-.05-.08h0a.74.74,0,0,1-.06-.46h0a.89.89,0,0,1,.22-.43h0L508,382h0a.65.65,0,0,1,.44-.11h0a4,4,0,0,0,1.08,0h0a8.59,8.59,0,0,0,1.11-.27h0a7.7,7.7,0,0,0,1.51-.71h0a5.09,5.09,0,0,0,.45-.31h0a6.54,6.54,0,0,0,.84-.74h0a6.41,6.41,0,0,0,.89-1.18h0a3.18,3.18,0,0,0,.23-2.17h0A8.34,8.34,0,0,0,513.3,374h0a3.62,3.62,0,0,1,0,.47h0a3.49,3.49,0,0,1-.18.79h0a2.2,2.2,0,0,1-.53.85h0a.69.69,0,0,1-.13.11h0a1,1,0,0,1-.41.18h0a1.69,1.69,0,0,1-.55,0h0a2.26,2.26,0,0,1-1.36-.83h0a1.13,1.13,0,0,0-.1-.13h0a4,4,0,0,1-.64-1.41h0a9.39,9.39,0,0,1-.25-1.72h0c0-.14,0-.37,0-.71h0a6.16,6.16,0,0,1,.14-1.08h0a4.47,4.47,0,0,1,.38-1.08h0a1.44,1.44,0,0,1,.44-.53h0a1.23,1.23,0,0,1,.32-.17h0a.6.6,0,0,1,.22,0h0a.21.21,0,0,1,.18.09h0l0,0h0a.69.69,0,0,1,.05.36h0l0,0h0a1.18,1.18,0,0,1,.19-.11h0a.65.65,0,0,1,.88.13h0l0,.05h0c.48.77,1,1.53,1.46,2.3h0c.49.77.94,1.56,1.38,2.35h0a10.7,10.7,0,0,1,1,2.13h0a4.52,4.52,0,0,1,.18,1.06h0a4,4,0,0,1-.33,1.71h0a5.9,5.9,0,0,1-.94,1.55h0a7.81,7.81,0,0,1-1.38,1.31h0a8.72,8.72,0,0,1-1.61.94Zm-1.08-12.42a2.65,2.65,0,0,0-.06.42h0c0,.16,0,.32,0,.5h0a4.52,4.52,0,0,0,0,.91h0l.15.88h0a4,4,0,0,0,.57,1.67h0a2,2,0,0,0,.33.36h0a.24.24,0,0,0,.16.06h0v0h0a.41.41,0,0,0,0-.1h0a3.74,3.74,0,0,0,0-.4h0a8.85,8.85,0,0,0-.22-1.55h0a12.48,12.48,0,0,0-.43-1.51h0c-.18-.48-.35-1-.52-1.44h0a2.25,2.25,0,0,0-.05.22Z"/><path class="cls-15" d="M516.55,373.11a3.3,3.3,0,0,1-1.47-.18h0a.55.55,0,0,1-.24-.18h0a.51.51,0,0,1-.09-.18h0a1,1,0,0,1,0-.49h0a.91.91,0,0,1,.25-.41h0l0,0h0a.44.44,0,0,1,.43-.06h0a2.37,2.37,0,0,0,.89.1h0a.47.47,0,0,0,.28-.08h0a.47.47,0,0,0,.16-.32h0a0,0,0,0,1,0,0h0a.64.64,0,0,1,0-.07h0a.72.72,0,0,0-.15-.29h0v0h0a1.63,1.63,0,0,0-.38-.33h0a1.56,1.56,0,0,0-.74-.2h0a3,3,0,0,0-.52,0h0a2.6,2.6,0,0,1-.56-.06h0a1.6,1.6,0,0,1-.88-.59h0a1.61,1.61,0,0,1-.17-.28h0a2.08,2.08,0,0,1-.14-1.59h0a3.59,3.59,0,0,1,.75-1.39h0l.08-.08h0a.41.41,0,0,1,.34-.07h0a.44.44,0,0,1,.3.19h0a.22.22,0,0,1,0,.08h0a.87.87,0,0,1,0,.84h0a2.18,2.18,0,0,0-.18.42h0a2,2,0,0,0-.1.51h0a.79.79,0,0,0,.1.42h0l0,0h0a.45.45,0,0,0,.34.15h0l.59,0h0a2.19,2.19,0,0,1,.62.07h0a6,6,0,0,1,.78.27h0a2,2,0,0,1,.69.49h0c.07.07.12.14.18.21h0a2.47,2.47,0,0,1,.44,1h0a1.73,1.73,0,0,1-.33,1.34h0a1.91,1.91,0,0,1-.42.43h0a1.65,1.65,0,0,1-.87.33Zm.34-1.87,0-.07,0,.07Zm0,0h0Z"/><path class="cls-15" d="M509.92,366.33c0-.19,0-.37.19-.48a.35.35,0,0,1,.47.11.73.73,0,0,1,.08.33l0,1.08a.44.44,0,0,1-.2.48.34.34,0,0,1-.46-.11.73.73,0,0,1-.08-.33Z"/><path class="cls-15" d="M508.14,367.43c-.11-.15-.22-.3-.13-.51a.35.35,0,0,1,.44-.19.71.71,0,0,1,.26.22l.69.83a.47.47,0,0,1,.14.5.35.35,0,0,1-.45.19.63.63,0,0,1-.25-.21Z"/><path class="cls-15" d="M507.09,368.92c-.17-.09-.32-.19-.32-.42a.34.34,0,0,1,.33-.34.65.65,0,0,1,.32.09l1,.5c.17.09.32.18.32.41a.34.34,0,0,1-.33.35.68.68,0,0,1-.32-.1Z"/><path class="cls-15" d="M507.87,370.06a.49.49,0,0,1,.5.18.34.34,0,0,1-.1.47.61.61,0,0,1-.32.09l-1.07.1c-.19,0-.37,0-.49-.17a.35.35,0,0,1,.09-.48.77.77,0,0,1,.32-.09Z"/><path class="cls-15" d="M511.76,366.44c.07-.17.14-.34.37-.36a.35.35,0,0,1,.38.3.77.77,0,0,1-.06.33l-.38,1c-.07.18-.15.34-.38.36a.34.34,0,0,1-.38-.29.72.72,0,0,1,.06-.33Z"/></svg>